<?xml version="1.0" encoding="utf-8"?>
<!-- Generator: Adobe Illustrator 19.0.0, SVG Export Plug-In . SVG Version: 6.00 Build 0)  -->
<svg version="1.1" id="图层_1" xmlns="http://www.w3.org/2000/svg" xmlns:xlink="http://www.w3.org/1999/xlink" x="0px" y="0px"
	 viewBox="1 -3 24 24" style="enable-background:new 1 -3 24 24;" xml:space="preserve">
<style type="text/css">
	.st0{display:none;fill:#A8A8A8;}
	.st1{display:none;}
	.st2{display:inline;}
	.st3{fill:#04B4B4;}
	.st4{fill:#A8A8A8;}
</style>
<path class="st0" d="M4.9-1.2C4.4-1.2,4-0.8,4-0.3v19.4C4,19.6,4.4,20,4.9,20s0.9-0.4,0.9-0.9V-0.3C5.7-0.8,5.4-1.2,4.9-1.2L4.9-1.2
	z M18.1,0.6c-1.6,0-3-0.4-3.9-0.9c-1-0.5-2.4-0.9-3.9-0.9c-1.6,0-3,0.6-3.9,1.2v10c1-0.5,2.4-1.2,3.9-1.2s3,0.4,3.9,0.9
	c1,0.5,2.4,0.9,3.9,0.9s3-0.7,3.9-1.2v-10C21-0.1,19.6,0.6,18.1,0.6L18.1,0.6z"/>
<g class="st1">
	<g class="st2">
		<path class="st3" d="M22-0.3H4c-0.8,0-1.5,0.7-1.5,1.5v12c0,0.8,0.7,1.5,1.5,1.5h7.5v2.2H7.7c-0.4,0-0.7,0.3-0.7,0.7v0.7h12v-0.7
			c0-0.4-0.3-0.7-0.7-0.7h-3.7v-2.2H22c0.8,0,1.5-0.7,1.5-1.5v-12C23.5,0.4,22.8-0.3,22-0.3L22-0.3z M12.2,13.2
			c0-0.4,0.3-0.7,0.7-0.7s0.7,0.3,0.7,0.7S13.3,14,12.9,14C12.5,13.9,12.2,13.6,12.2,13.2L12.2,13.2z M4,11.7V1.2h18v10.5H4z"/>
	</g>
</g>
<path class="st4" d="M23.5,15.8c-0.1-1.9-1-3.7-2.5-4.8V5.8c0-3-2.2-5.6-5-6.2v-0.1C16-1.9,14.9-3,13.5-3S11-1.9,11-0.5v0.1
	C8.1,0.2,6,2.8,6,5.8v5.3c-1.5,1.1-2.4,2.8-2.5,4.8H6l0,0h15.1l0,0h2.4V15.8z M12.9,20.4h0.6c1.6,0,3-1.2,3.2-2.8h-6.6
	c0.2,1.6,1.6,2.8,3.2,2.8H12.9L12.9,20.4z"/>
<path class="st0" d="M10.6,20.8C5.1,19.6,1,14.8,1,9C1,2.4,6.4-3,13-3S25,2.4,25,9c0,3.2-1.3,6.2-3.5,8.5C19.2,19.7,16.2,21,13,21
	C12.2,21,11.3,20.9,10.6,20.8z M21,16.3c1.8-2,2.8-4.6,2.8-7.3C23.8,3,19-1.8,13-1.8S2.2,3,2.2,9c0,2.8,1.1,5.3,2.8,7.3
	c1.2-3.4,5.5-4.3,8-4.3C15.5,11.9,19.8,12.8,21,16.3L21,16.3z M13,1.2c2.6,0,4.8,2.1,4.8,4.8c0,2.6-2.1,4.8-4.8,4.8S8.2,8.7,8.2,6
	C8.2,3.4,10.4,1.2,13,1.2z"/>
</svg>
